<mxfile host="app.diagrams.net" agent="Mozilla/5.0 (Windows NT 10.0; Win64; x64) AppleWebKit/537.36 (KHTML, like Gecko) Chrome/136.0.0.0 Safari/537.36" version="27.0.5">
  <diagram name="페이지-1" id="alh3dHqGYWYSXFJv8Bm3">
    <mxGraphModel dx="2780" dy="1482" grid="0" gridSize="10" guides="1" tooltips="1" connect="1" arrows="1" fold="1" page="0" pageScale="1" pageWidth="827" pageHeight="1169" math="0" shadow="0">
      <root>
        <mxCell id="0" />
        <mxCell id="1" parent="0" />
        <mxCell id="OIktfTb1txwrS_9Mmnix-86" value="무한 반복" style="whiteSpace=wrap;strokeWidth=2;fontSize=30;" vertex="1" parent="1">
          <mxGeometry x="20" y="1182" width="1042" height="3094" as="geometry" />
        </mxCell>
        <mxCell id="OIktfTb1txwrS_9Mmnix-88" value="시그널 핸들러 등록 SIGALRM SIGCHLD" style="whiteSpace=wrap;strokeWidth=2;fontSize=30;" vertex="1" parent="1">
          <mxGeometry x="425.5" y="420" width="260" height="108" as="geometry" />
        </mxCell>
        <mxCell id="OIktfTb1txwrS_9Mmnix-89" value="홈 디렉토리 경로 얻기" style="whiteSpace=wrap;strokeWidth=2;fontSize=30;" vertex="1" parent="1">
          <mxGeometry x="397.5" y="562" width="316" height="54" as="geometry" />
        </mxCell>
        <mxCell id="OIktfTb1txwrS_9Mmnix-90" value="logfile 디렉토리 생성" style="whiteSpace=wrap;strokeWidth=2;fontSize=30;" vertex="1" parent="1">
          <mxGeometry x="412.5" y="664" width="288" height="54" as="geometry" />
        </mxCell>
        <mxCell id="OIktfTb1txwrS_9Mmnix-91" value="서버 소켓 생성" style="whiteSpace=wrap;strokeWidth=2;fontSize=30;" vertex="1" parent="1">
          <mxGeometry x="448" y="767" width="225" height="54" as="geometry" />
        </mxCell>
        <mxCell id="OIktfTb1txwrS_9Mmnix-92" value="서버 주소 구조체 설정" style="whiteSpace=wrap;strokeWidth=2;fontSize=30;" vertex="1" parent="1">
          <mxGeometry x="401.5" y="871" width="318" height="54" as="geometry" />
        </mxCell>
        <mxCell id="OIktfTb1txwrS_9Mmnix-93" value="bind로 IP PORT 할당" style="whiteSpace=wrap;strokeWidth=2;fontSize=30;" vertex="1" parent="1">
          <mxGeometry x="456" y="962" width="200" height="66" as="geometry" />
        </mxCell>
        <mxCell id="OIktfTb1txwrS_9Mmnix-94" value="listen으로 연결 대기" style="whiteSpace=wrap;strokeWidth=2;fontSize=30;" vertex="1" parent="1">
          <mxGeometry x="416.5" y="1078" width="281" height="54" as="geometry" />
        </mxCell>
        <mxCell id="OIktfTb1txwrS_9Mmnix-95" value="무한 반복" style="whiteSpace=wrap;strokeWidth=2;fontSize=30;" vertex="1" parent="1">
          <mxGeometry x="495" y="1207" width="124" height="54" as="geometry" />
        </mxCell>
        <mxCell id="OIktfTb1txwrS_9Mmnix-96" value="accept로 클라이언트 연결 수락" style="whiteSpace=wrap;strokeWidth=2;fontSize=30;" vertex="1" parent="1">
          <mxGeometry x="93" y="1311" width="260" height="78" as="geometry" />
        </mxCell>
        <mxCell id="OIktfTb1txwrS_9Mmnix-97" value="연결 성공 메시지 출력" style="whiteSpace=wrap;strokeWidth=2;fontSize=30;" vertex="1" parent="1">
          <mxGeometry x="83" y="1423" width="318" height="70" as="geometry" />
        </mxCell>
        <mxCell id="OIktfTb1txwrS_9Mmnix-98" value="자식 프로세스 fork 생성" style="whiteSpace=wrap;strokeWidth=2;fontSize=30;" vertex="1" parent="1">
          <mxGeometry x="112" y="1527" width="221" height="70" as="geometry" />
        </mxCell>
        <mxCell id="OIktfTb1txwrS_9Mmnix-99" value="서버 소켓 닫기" style="whiteSpace=wrap;strokeWidth=2;fontSize=30;" vertex="1" parent="1">
          <mxGeometry x="88" y="1679" width="206" height="54" as="geometry" />
        </mxCell>
        <mxCell id="OIktfTb1txwrS_9Mmnix-100" value="자식 시작 시간 저장" style="whiteSpace=wrap;strokeWidth=2;fontSize=30;" vertex="1" parent="1">
          <mxGeometry x="77" y="1778" width="281" height="54" as="geometry" />
        </mxCell>
        <mxCell id="OIktfTb1txwrS_9Mmnix-101" value="클라이언트 요청 받기" style="whiteSpace=wrap;strokeWidth=2;fontSize=30;" vertex="1" parent="1">
          <mxGeometry x="68" y="1880" width="295" height="54" as="geometry" />
        </mxCell>
        <mxCell id="OIktfTb1txwrS_9Mmnix-102" value="현재 시간 저장" style="whiteSpace=wrap;strokeWidth=2;fontSize=30;" vertex="1" parent="1">
          <mxGeometry x="106" y="1976" width="215" height="54" as="geometry" />
        </mxCell>
        <mxCell id="OIktfTb1txwrS_9Mmnix-103" value="요청 출력" style="whiteSpace=wrap;strokeWidth=2;fontSize=30;" vertex="1" parent="1">
          <mxGeometry x="123" y="2086" width="124" height="54" as="geometry" />
        </mxCell>
        <mxCell id="OIktfTb1txwrS_9Mmnix-104" value="GET이 아니거나 무시 대상이면 isURL 0" style="whiteSpace=wrap;strokeWidth=2;fontSize=30;" vertex="1" parent="1">
          <mxGeometry x="55" y="2190" width="303" height="78" as="geometry" />
        </mxCell>
        <mxCell id="OIktfTb1txwrS_9Mmnix-105" value="SHA1 해시 수행" style="whiteSpace=wrap;strokeWidth=2;fontSize=30;" vertex="1" parent="1">
          <mxGeometry x="103" y="2318" width="220" height="54" as="geometry" />
        </mxCell>
        <mxCell id="OIktfTb1txwrS_9Mmnix-106" value="앞 3자리 디렉토리 이름" style="whiteSpace=wrap;strokeWidth=2;fontSize=30;" vertex="1" parent="1">
          <mxGeometry x="63" y="2422" width="293" height="54" as="geometry" />
        </mxCell>
        <mxCell id="OIktfTb1txwrS_9Mmnix-107" value="뒤 37자리 파일 이름" style="whiteSpace=wrap;strokeWidth=2;fontSize=30;" vertex="1" parent="1">
          <mxGeometry x="73.5" y="2526" width="279" height="54" as="geometry" />
        </mxCell>
        <mxCell id="OIktfTb1txwrS_9Mmnix-108" value="cache 디렉토리 생성" style="whiteSpace=wrap;strokeWidth=2;fontSize=30;" vertex="1" parent="1">
          <mxGeometry x="67" y="2630" width="291" height="54" as="geometry" />
        </mxCell>
        <mxCell id="OIktfTb1txwrS_9Mmnix-109" value="cache 하위 디렉토리 생성" style="whiteSpace=wrap;strokeWidth=2;fontSize=30;" vertex="1" parent="1">
          <mxGeometry x="47.5" y="2734" width="332" height="54" as="geometry" />
        </mxCell>
        <mxCell id="OIktfTb1txwrS_9Mmnix-110" value="디렉토리에서 파일 탐색" style="whiteSpace=wrap;strokeWidth=2;fontSize=30;" vertex="1" parent="1">
          <mxGeometry x="55" y="2834" width="322" height="54" as="geometry" />
        </mxCell>
        <mxCell id="OIktfTb1txwrS_9Mmnix-111" value="HIT" style="whiteSpace=wrap;strokeWidth=2;fontSize=30;" vertex="1" parent="1">
          <mxGeometry x="143" y="2965" width="84" height="54" as="geometry" />
        </mxCell>
        <mxCell id="OIktfTb1txwrS_9Mmnix-112" value="MISS" style="whiteSpace=wrap;strokeWidth=2;fontSize=30;" vertex="1" parent="1">
          <mxGeometry x="748" y="2965" width="91" height="54" as="geometry" />
        </mxCell>
        <mxCell id="OIktfTb1txwrS_9Mmnix-113" value="logfile 디렉토리로 이동 후 logfile txt 열기" style="whiteSpace=wrap;strokeWidth=2;fontSize=30;" vertex="1" parent="1">
          <mxGeometry x="41.25" y="3055" width="288.5" height="100" as="geometry" />
        </mxCell>
        <mxCell id="OIktfTb1txwrS_9Mmnix-114" value="hit 증가 &#xa;캐시 읽고 브라우저 전송 로그 기록" style="whiteSpace=wrap;strokeWidth=2;fontSize=30;" vertex="1" parent="1">
          <mxGeometry x="15" y="3213" width="454" height="78" as="geometry" />
        </mxCell>
        <mxCell id="OIktfTb1txwrS_9Mmnix-115" value="자식 종료 시각 저장 종료 로그 기록 &#xa;연결 종료" style="whiteSpace=wrap;strokeWidth=2;fontSize=30;" vertex="1" parent="1">
          <mxGeometry x="244" y="3349" width="260" height="134" as="geometry" />
        </mxCell>
        <mxCell id="OIktfTb1txwrS_9Mmnix-116" value="logfile 디렉토리로 이동 후 logfile txt 열기" style="whiteSpace=wrap;strokeWidth=2;fontSize=30;" vertex="1" parent="1">
          <mxGeometry x="650" y="3041" width="282" height="110" as="geometry" />
        </mxCell>
        <mxCell id="OIktfTb1txwrS_9Mmnix-117" value="miss 증가 요청 파싱 hostname ip 획득 &#xa;연결 시도 실패 시 종료" style="whiteSpace=wrap;strokeWidth=2;fontSize=30;" vertex="1" parent="1">
          <mxGeometry x="636" y="3201" width="308" height="102" as="geometry" />
        </mxCell>
        <mxCell id="OIktfTb1txwrS_9Mmnix-118" value="요청 라인 생성 및 헤더 정리 후 웹 서버에 전송" style="whiteSpace=wrap;strokeWidth=2;fontSize=30;" vertex="1" parent="1">
          <mxGeometry x="644" y="3360" width="288" height="78" as="geometry" />
        </mxCell>
        <mxCell id="OIktfTb1txwrS_9Mmnix-119" value="alarm 10 설정" style="whiteSpace=wrap;strokeWidth=2;fontSize=30;" vertex="1" parent="1">
          <mxGeometry x="685.5" y="3495" width="218" height="54" as="geometry" />
        </mxCell>
        <mxCell id="OIktfTb1txwrS_9Mmnix-120" value="웹서버 응답 수신" style="whiteSpace=wrap;strokeWidth=2;fontSize=30;" vertex="1" parent="1">
          <mxGeometry x="682" y="3602" width="231" height="54" as="geometry" />
        </mxCell>
        <mxCell id="OIktfTb1txwrS_9Mmnix-121" value="alarm 0 해제" style="whiteSpace=wrap;strokeWidth=2;fontSize=30;" vertex="1" parent="1">
          <mxGeometry x="700" y="3707" width="195" height="54" as="geometry" />
        </mxCell>
        <mxCell id="OIktfTb1txwrS_9Mmnix-122" value="응답 브라우저 전송" style="whiteSpace=wrap;strokeWidth=2;fontSize=30;" vertex="1" parent="1">
          <mxGeometry x="665.5" y="3812" width="256" height="54" as="geometry" />
        </mxCell>
        <mxCell id="OIktfTb1txwrS_9Mmnix-123" value="캐시 디렉토리 이동 캐시 파일 생성 저장" style="whiteSpace=wrap;strokeWidth=2;fontSize=30;" vertex="1" parent="1">
          <mxGeometry x="664" y="3917" width="260" height="78" as="geometry" />
        </mxCell>
        <mxCell id="OIktfTb1txwrS_9Mmnix-124" value="로그에 MISS 기록" style="whiteSpace=wrap;strokeWidth=2;fontSize=30;" vertex="1" parent="1">
          <mxGeometry x="670" y="4045" width="243" height="54" as="geometry" />
        </mxCell>
        <mxCell id="OIktfTb1txwrS_9Mmnix-125" value="자식 종료 시각 저장 종료 로그 기록 &#xa;연결 종료" style="whiteSpace=wrap;strokeWidth=2;fontSize=30;" vertex="1" parent="1">
          <mxGeometry x="747" y="4141" width="260" height="110" as="geometry" />
        </mxCell>
        <mxCell id="OIktfTb1txwrS_9Mmnix-126" value="클라이언트 소켓 닫기" style="whiteSpace=wrap;strokeWidth=2;fontSize=30;" vertex="1" parent="1">
          <mxGeometry x="319" y="1670" width="202" height="72" as="geometry" />
        </mxCell>
        <mxCell id="OIktfTb1txwrS_9Mmnix-128" value="" style="curved=1;startArrow=none;endArrow=block;exitX=0.5;exitY=1;entryX=0.5;entryY=0;rounded=0;fontSize=30;" edge="1" parent="1" target="OIktfTb1txwrS_9Mmnix-88">
          <mxGeometry relative="1" as="geometry">
            <Array as="points" />
            <mxPoint x="556.4999999999995" y="380" as="sourcePoint" />
          </mxGeometry>
        </mxCell>
        <mxCell id="OIktfTb1txwrS_9Mmnix-129" value="" style="curved=1;startArrow=none;endArrow=block;exitX=0.5;exitY=1;entryX=0.5;entryY=0;rounded=0;fontSize=30;" edge="1" parent="1" source="OIktfTb1txwrS_9Mmnix-88" target="OIktfTb1txwrS_9Mmnix-89">
          <mxGeometry relative="1" as="geometry">
            <Array as="points" />
          </mxGeometry>
        </mxCell>
        <mxCell id="OIktfTb1txwrS_9Mmnix-130" value="" style="curved=1;startArrow=none;endArrow=block;exitX=0.5;exitY=1;entryX=0.5;entryY=0;rounded=0;fontSize=30;" edge="1" parent="1" source="OIktfTb1txwrS_9Mmnix-89" target="OIktfTb1txwrS_9Mmnix-90">
          <mxGeometry relative="1" as="geometry">
            <Array as="points" />
          </mxGeometry>
        </mxCell>
        <mxCell id="OIktfTb1txwrS_9Mmnix-131" value="" style="curved=1;startArrow=none;endArrow=block;exitX=0.5;exitY=1;entryX=0.5;entryY=0;rounded=0;fontSize=30;" edge="1" parent="1" source="OIktfTb1txwrS_9Mmnix-90" target="OIktfTb1txwrS_9Mmnix-91">
          <mxGeometry relative="1" as="geometry">
            <Array as="points" />
          </mxGeometry>
        </mxCell>
        <mxCell id="OIktfTb1txwrS_9Mmnix-132" value="" style="curved=1;startArrow=none;endArrow=block;exitX=0.5;exitY=1;entryX=0.5;entryY=0;rounded=0;fontSize=30;" edge="1" parent="1" source="OIktfTb1txwrS_9Mmnix-91" target="OIktfTb1txwrS_9Mmnix-92">
          <mxGeometry relative="1" as="geometry">
            <Array as="points" />
          </mxGeometry>
        </mxCell>
        <mxCell id="OIktfTb1txwrS_9Mmnix-133" value="" style="curved=1;startArrow=none;endArrow=block;exitX=0.5;exitY=1;entryX=0.5;entryY=0;rounded=0;fontSize=30;" edge="1" parent="1" source="OIktfTb1txwrS_9Mmnix-92" target="OIktfTb1txwrS_9Mmnix-93">
          <mxGeometry relative="1" as="geometry">
            <Array as="points" />
          </mxGeometry>
        </mxCell>
        <mxCell id="OIktfTb1txwrS_9Mmnix-134" value="" style="curved=1;startArrow=none;endArrow=block;exitX=0.5;exitY=1;entryX=0.5;entryY=0;rounded=0;fontSize=30;" edge="1" parent="1" source="OIktfTb1txwrS_9Mmnix-93" target="OIktfTb1txwrS_9Mmnix-94">
          <mxGeometry relative="1" as="geometry">
            <Array as="points" />
          </mxGeometry>
        </mxCell>
        <mxCell id="OIktfTb1txwrS_9Mmnix-135" value="" style="curved=1;startArrow=none;endArrow=block;exitX=0.5;exitY=1;entryX=0.5;entryY=0;rounded=0;fontSize=30;" edge="1" parent="1" source="OIktfTb1txwrS_9Mmnix-94" target="OIktfTb1txwrS_9Mmnix-95">
          <mxGeometry relative="1" as="geometry">
            <Array as="points" />
          </mxGeometry>
        </mxCell>
        <mxCell id="OIktfTb1txwrS_9Mmnix-136" value="" style="curved=1;startArrow=none;endArrow=block;exitX=0;exitY=0.68;entryX=0.5;entryY=0;rounded=0;fontSize=30;" edge="1" parent="1" source="OIktfTb1txwrS_9Mmnix-95" target="OIktfTb1txwrS_9Mmnix-96">
          <mxGeometry relative="1" as="geometry">
            <Array as="points">
              <mxPoint x="223" y="1286" />
            </Array>
          </mxGeometry>
        </mxCell>
        <mxCell id="OIktfTb1txwrS_9Mmnix-137" value="" style="curved=1;startArrow=none;endArrow=block;exitX=0.5;exitY=1;entryX=0.5;entryY=0;rounded=0;fontSize=30;" edge="1" parent="1" source="OIktfTb1txwrS_9Mmnix-96" target="OIktfTb1txwrS_9Mmnix-97">
          <mxGeometry relative="1" as="geometry">
            <Array as="points" />
          </mxGeometry>
        </mxCell>
        <mxCell id="OIktfTb1txwrS_9Mmnix-138" value="" style="curved=1;startArrow=none;endArrow=block;exitX=0.5;exitY=1;entryX=0.5;entryY=0;rounded=0;fontSize=30;" edge="1" parent="1" source="OIktfTb1txwrS_9Mmnix-97" target="OIktfTb1txwrS_9Mmnix-98">
          <mxGeometry relative="1" as="geometry">
            <Array as="points" />
          </mxGeometry>
        </mxCell>
        <mxCell id="OIktfTb1txwrS_9Mmnix-139" value="자식이면" style="curved=1;startArrow=none;endArrow=block;exitX=0.43;exitY=1;entryX=0.5;entryY=0;rounded=0;fontSize=30;" edge="1" parent="1" source="OIktfTb1txwrS_9Mmnix-98" target="OIktfTb1txwrS_9Mmnix-99">
          <mxGeometry relative="1" as="geometry">
            <Array as="points">
              <mxPoint x="185" y="1633" />
            </Array>
          </mxGeometry>
        </mxCell>
        <mxCell id="OIktfTb1txwrS_9Mmnix-140" value="" style="curved=1;startArrow=none;endArrow=block;exitX=0.5;exitY=1;entryX=0.5;entryY=0;rounded=0;fontSize=30;" edge="1" parent="1" source="OIktfTb1txwrS_9Mmnix-99" target="OIktfTb1txwrS_9Mmnix-100">
          <mxGeometry relative="1" as="geometry">
            <Array as="points" />
          </mxGeometry>
        </mxCell>
        <mxCell id="OIktfTb1txwrS_9Mmnix-141" value="" style="curved=1;startArrow=none;endArrow=block;exitX=0.5;exitY=1;entryX=0.5;entryY=0;rounded=0;fontSize=30;" edge="1" parent="1" source="OIktfTb1txwrS_9Mmnix-100" target="OIktfTb1txwrS_9Mmnix-101">
          <mxGeometry relative="1" as="geometry">
            <Array as="points" />
          </mxGeometry>
        </mxCell>
        <mxCell id="OIktfTb1txwrS_9Mmnix-142" value="" style="curved=1;startArrow=none;endArrow=block;exitX=0.5;exitY=1;entryX=0.5;entryY=0;rounded=0;fontSize=30;" edge="1" parent="1" source="OIktfTb1txwrS_9Mmnix-101" target="OIktfTb1txwrS_9Mmnix-102">
          <mxGeometry relative="1" as="geometry">
            <Array as="points" />
          </mxGeometry>
        </mxCell>
        <mxCell id="OIktfTb1txwrS_9Mmnix-143" value="" style="curved=1;startArrow=none;endArrow=block;exitX=0.5;exitY=1;entryX=0.5;entryY=0;rounded=0;fontSize=30;" edge="1" parent="1" source="OIktfTb1txwrS_9Mmnix-102" target="OIktfTb1txwrS_9Mmnix-103">
          <mxGeometry relative="1" as="geometry">
            <Array as="points" />
          </mxGeometry>
        </mxCell>
        <mxCell id="OIktfTb1txwrS_9Mmnix-144" value="" style="curved=1;startArrow=none;endArrow=block;exitX=0.5;exitY=1;entryX=0.5;entryY=0;rounded=0;fontSize=30;" edge="1" parent="1" source="OIktfTb1txwrS_9Mmnix-103" target="OIktfTb1txwrS_9Mmnix-104">
          <mxGeometry relative="1" as="geometry">
            <Array as="points" />
          </mxGeometry>
        </mxCell>
        <mxCell id="OIktfTb1txwrS_9Mmnix-145" value="" style="curved=1;startArrow=none;endArrow=block;exitX=0.5;exitY=1;entryX=0.5;entryY=0;rounded=0;fontSize=30;" edge="1" parent="1" source="OIktfTb1txwrS_9Mmnix-104" target="OIktfTb1txwrS_9Mmnix-105">
          <mxGeometry relative="1" as="geometry">
            <Array as="points" />
          </mxGeometry>
        </mxCell>
        <mxCell id="OIktfTb1txwrS_9Mmnix-146" value="" style="curved=1;startArrow=none;endArrow=block;exitX=0.5;exitY=1;entryX=0.5;entryY=0;rounded=0;fontSize=30;" edge="1" parent="1" source="OIktfTb1txwrS_9Mmnix-105" target="OIktfTb1txwrS_9Mmnix-106">
          <mxGeometry relative="1" as="geometry">
            <Array as="points" />
          </mxGeometry>
        </mxCell>
        <mxCell id="OIktfTb1txwrS_9Mmnix-147" value="" style="curved=1;startArrow=none;endArrow=block;exitX=0.5;exitY=1;entryX=0.5;entryY=0;rounded=0;fontSize=30;" edge="1" parent="1" source="OIktfTb1txwrS_9Mmnix-106" target="OIktfTb1txwrS_9Mmnix-107">
          <mxGeometry relative="1" as="geometry">
            <Array as="points" />
          </mxGeometry>
        </mxCell>
        <mxCell id="OIktfTb1txwrS_9Mmnix-148" value="" style="curved=1;startArrow=none;endArrow=block;exitX=0.5;exitY=1;entryX=0.5;entryY=0;rounded=0;fontSize=30;" edge="1" parent="1" source="OIktfTb1txwrS_9Mmnix-107" target="OIktfTb1txwrS_9Mmnix-108">
          <mxGeometry relative="1" as="geometry">
            <Array as="points" />
          </mxGeometry>
        </mxCell>
        <mxCell id="OIktfTb1txwrS_9Mmnix-149" value="" style="curved=1;startArrow=none;endArrow=block;exitX=0.5;exitY=1;entryX=0.5;entryY=0;rounded=0;fontSize=30;" edge="1" parent="1" source="OIktfTb1txwrS_9Mmnix-108" target="OIktfTb1txwrS_9Mmnix-109">
          <mxGeometry relative="1" as="geometry">
            <Array as="points" />
          </mxGeometry>
        </mxCell>
        <mxCell id="OIktfTb1txwrS_9Mmnix-150" value="" style="curved=1;startArrow=none;endArrow=block;exitX=0.5;exitY=1;entryX=0.5;entryY=0;rounded=0;fontSize=30;" edge="1" parent="1" source="OIktfTb1txwrS_9Mmnix-109" target="OIktfTb1txwrS_9Mmnix-110">
          <mxGeometry relative="1" as="geometry">
            <Array as="points" />
          </mxGeometry>
        </mxCell>
        <mxCell id="OIktfTb1txwrS_9Mmnix-151" value="존재" style="curved=1;startArrow=none;endArrow=block;exitX=0.5;exitY=1;entryX=0.5;entryY=0;rounded=0;fontSize=30;" edge="1" parent="1" source="OIktfTb1txwrS_9Mmnix-110" target="OIktfTb1txwrS_9Mmnix-111">
          <mxGeometry relative="1" as="geometry">
            <Array as="points" />
          </mxGeometry>
        </mxCell>
        <mxCell id="OIktfTb1txwrS_9Mmnix-152" value="없음" style="curved=1;startArrow=none;endArrow=block;exitX=1;exitY=0.71;entryX=0.51;entryY=0;rounded=0;fontSize=30;" edge="1" parent="1" source="OIktfTb1txwrS_9Mmnix-110" target="OIktfTb1txwrS_9Mmnix-112">
          <mxGeometry relative="1" as="geometry">
            <Array as="points">
              <mxPoint x="794" y="2928" />
            </Array>
          </mxGeometry>
        </mxCell>
        <mxCell id="OIktfTb1txwrS_9Mmnix-153" value="" style="curved=1;startArrow=none;endArrow=block;exitX=0.5;exitY=1;entryX=0.5;entryY=0;rounded=0;fontSize=30;" edge="1" parent="1" source="OIktfTb1txwrS_9Mmnix-111" target="OIktfTb1txwrS_9Mmnix-113">
          <mxGeometry relative="1" as="geometry">
            <Array as="points" />
          </mxGeometry>
        </mxCell>
        <mxCell id="OIktfTb1txwrS_9Mmnix-154" value="" style="curved=1;startArrow=none;endArrow=block;exitX=0.5;exitY=1;entryX=0.5;entryY=0;rounded=0;fontSize=30;" edge="1" parent="1" source="OIktfTb1txwrS_9Mmnix-113" target="OIktfTb1txwrS_9Mmnix-114">
          <mxGeometry relative="1" as="geometry">
            <Array as="points" />
          </mxGeometry>
        </mxCell>
        <mxCell id="OIktfTb1txwrS_9Mmnix-155" value="" style="curved=1;startArrow=none;endArrow=block;exitX=0.5;exitY=1;entryX=0.01;entryY=0;rounded=0;fontSize=30;" edge="1" parent="1" source="OIktfTb1txwrS_9Mmnix-114" target="OIktfTb1txwrS_9Mmnix-115">
          <mxGeometry relative="1" as="geometry">
            <Array as="points">
              <mxPoint x="185" y="3324" />
            </Array>
          </mxGeometry>
        </mxCell>
        <mxCell id="OIktfTb1txwrS_9Mmnix-156" value="" style="curved=1;startArrow=none;endArrow=block;exitX=0.51;exitY=1;entryX=0.5;entryY=0;rounded=0;fontSize=30;" edge="1" parent="1" source="OIktfTb1txwrS_9Mmnix-112" target="OIktfTb1txwrS_9Mmnix-116">
          <mxGeometry relative="1" as="geometry">
            <Array as="points" />
          </mxGeometry>
        </mxCell>
        <mxCell id="OIktfTb1txwrS_9Mmnix-157" value="" style="curved=1;startArrow=none;endArrow=block;exitX=0.5;exitY=1;entryX=0.5;entryY=0;rounded=0;fontSize=30;" edge="1" parent="1" source="OIktfTb1txwrS_9Mmnix-116" target="OIktfTb1txwrS_9Mmnix-117">
          <mxGeometry relative="1" as="geometry">
            <Array as="points" />
          </mxGeometry>
        </mxCell>
        <mxCell id="OIktfTb1txwrS_9Mmnix-158" value="" style="curved=1;startArrow=none;endArrow=block;exitX=0.5;exitY=1;entryX=0.5;entryY=0;rounded=0;fontSize=30;" edge="1" parent="1" source="OIktfTb1txwrS_9Mmnix-117" target="OIktfTb1txwrS_9Mmnix-118">
          <mxGeometry relative="1" as="geometry">
            <Array as="points" />
          </mxGeometry>
        </mxCell>
        <mxCell id="OIktfTb1txwrS_9Mmnix-159" value="" style="curved=1;startArrow=none;endArrow=block;exitX=0.5;exitY=1;entryX=0.5;entryY=0;rounded=0;fontSize=30;" edge="1" parent="1" source="OIktfTb1txwrS_9Mmnix-118" target="OIktfTb1txwrS_9Mmnix-119">
          <mxGeometry relative="1" as="geometry">
            <Array as="points" />
          </mxGeometry>
        </mxCell>
        <mxCell id="OIktfTb1txwrS_9Mmnix-160" value="" style="curved=1;startArrow=none;endArrow=block;exitX=0.5;exitY=1;entryX=0.5;entryY=0;rounded=0;fontSize=30;" edge="1" parent="1" source="OIktfTb1txwrS_9Mmnix-119" target="OIktfTb1txwrS_9Mmnix-120">
          <mxGeometry relative="1" as="geometry">
            <Array as="points" />
          </mxGeometry>
        </mxCell>
        <mxCell id="OIktfTb1txwrS_9Mmnix-161" value="" style="curved=1;startArrow=none;endArrow=block;exitX=0.5;exitY=1;entryX=0.5;entryY=0;rounded=0;fontSize=30;" edge="1" parent="1" source="OIktfTb1txwrS_9Mmnix-120" target="OIktfTb1txwrS_9Mmnix-121">
          <mxGeometry relative="1" as="geometry">
            <Array as="points" />
          </mxGeometry>
        </mxCell>
        <mxCell id="OIktfTb1txwrS_9Mmnix-162" value="" style="curved=1;startArrow=none;endArrow=block;exitX=0.5;exitY=1;entryX=0.5;entryY=0;rounded=0;fontSize=30;" edge="1" parent="1" source="OIktfTb1txwrS_9Mmnix-121" target="OIktfTb1txwrS_9Mmnix-122">
          <mxGeometry relative="1" as="geometry">
            <Array as="points" />
          </mxGeometry>
        </mxCell>
        <mxCell id="OIktfTb1txwrS_9Mmnix-163" value="" style="curved=1;startArrow=none;endArrow=block;exitX=0.5;exitY=1;entryX=0.5;entryY=0;rounded=0;fontSize=30;" edge="1" parent="1" source="OIktfTb1txwrS_9Mmnix-122" target="OIktfTb1txwrS_9Mmnix-123">
          <mxGeometry relative="1" as="geometry">
            <Array as="points" />
          </mxGeometry>
        </mxCell>
        <mxCell id="OIktfTb1txwrS_9Mmnix-164" value="" style="curved=1;startArrow=none;endArrow=block;exitX=0.5;exitY=1;entryX=0.5;entryY=0;rounded=0;fontSize=30;" edge="1" parent="1" source="OIktfTb1txwrS_9Mmnix-123" target="OIktfTb1txwrS_9Mmnix-124">
          <mxGeometry relative="1" as="geometry">
            <Array as="points" />
          </mxGeometry>
        </mxCell>
        <mxCell id="OIktfTb1txwrS_9Mmnix-165" value="" style="curved=1;startArrow=none;endArrow=block;exitX=0.5;exitY=1;entryX=0.29;entryY=0;rounded=0;fontSize=30;" edge="1" parent="1" source="OIktfTb1txwrS_9Mmnix-124" target="OIktfTb1txwrS_9Mmnix-125">
          <mxGeometry relative="1" as="geometry">
            <Array as="points">
              <mxPoint x="794" y="4124" />
            </Array>
          </mxGeometry>
        </mxCell>
        <mxCell id="OIktfTb1txwrS_9Mmnix-166" value="부모면" style="curved=1;startArrow=none;endArrow=block;exitX=0.72;exitY=1;entryX=0.33;entryY=0;rounded=0;fontSize=30;" edge="1" parent="1" source="OIktfTb1txwrS_9Mmnix-98" target="OIktfTb1txwrS_9Mmnix-126">
          <mxGeometry relative="1" as="geometry">
            <Array as="points">
              <mxPoint x="338" y="1633" />
            </Array>
          </mxGeometry>
        </mxCell>
        <mxCell id="OIktfTb1txwrS_9Mmnix-167" value="" style="curved=1;startArrow=none;endArrow=block;exitX=0.97;exitY=0;entryX=0.5;entryY=1;rounded=0;fontSize=30;" edge="1" parent="1" source="OIktfTb1txwrS_9Mmnix-115" target="OIktfTb1txwrS_9Mmnix-95">
          <mxGeometry relative="1" as="geometry">
            <Array as="points">
              <mxPoint x="557" y="3324" />
            </Array>
          </mxGeometry>
        </mxCell>
        <mxCell id="OIktfTb1txwrS_9Mmnix-168" value="" style="curved=1;startArrow=none;endArrow=block;exitX=0.71;exitY=0;entryX=1;entryY=0.65;rounded=0;fontSize=30;" edge="1" parent="1" source="OIktfTb1txwrS_9Mmnix-125" target="OIktfTb1txwrS_9Mmnix-95">
          <mxGeometry relative="1" as="geometry">
            <Array as="points">
              <mxPoint x="959" y="4124" />
              <mxPoint x="959" y="1286" />
            </Array>
          </mxGeometry>
        </mxCell>
        <mxCell id="OIktfTb1txwrS_9Mmnix-169" value="" style="curved=1;startArrow=none;endArrow=block;exitX=0.62;exitY=0;entryX=0.17;entryY=1;rounded=0;fontSize=30;" edge="1" parent="1" source="OIktfTb1txwrS_9Mmnix-126" target="OIktfTb1txwrS_9Mmnix-95">
          <mxGeometry relative="1" as="geometry">
            <Array as="points">
              <mxPoint x="479" y="1633" />
              <mxPoint x="479" y="1286" />
            </Array>
          </mxGeometry>
        </mxCell>
        <mxCell id="OIktfTb1txwrS_9Mmnix-170" value="" style="curved=1;startArrow=none;endArrow=block;exitX=1;exitY=0.64;entryX=0.09;entryY=0;rounded=0;fontSize=30;" edge="1" parent="1" source="OIktfTb1txwrS_9Mmnix-95">
          <mxGeometry relative="1" as="geometry">
            <Array as="points">
              <mxPoint x="979" y="1286" />
            </Array>
            <mxPoint x="1120.039999999999" y="1323" as="targetPoint" />
          </mxGeometry>
        </mxCell>
        <mxCell id="OIktfTb1txwrS_9Mmnix-171" value="&lt;span style=&quot;font-size: 30px;&quot;&gt;프로그램&amp;nbsp;&lt;/span&gt;&lt;div&gt;&lt;span style=&quot;font-size: 30px;&quot;&gt;시작&lt;/span&gt;&lt;/div&gt;" style="ellipse;whiteSpace=wrap;html=1;aspect=fixed;" vertex="1" parent="1">
          <mxGeometry x="479.5" y="240" width="155" height="155" as="geometry" />
        </mxCell>
        <mxCell id="OIktfTb1txwrS_9Mmnix-173" value="&lt;span style=&quot;font-size: 30px;&quot;&gt;서버 소켓 닫고 프로그램 종료&lt;/span&gt;" style="ellipse;whiteSpace=wrap;html=1;aspect=fixed;" vertex="1" parent="1">
          <mxGeometry x="1124" y="1264" width="155" height="155" as="geometry" />
        </mxCell>
      </root>
    </mxGraphModel>
  </diagram>
</mxfile>
